<svg viewBox="0 0 70 74" fill="none" xmlns="http://www.w3.org/2000/svg"><path d="M4.299 26.178L6.795.523h24.44v8.39H14.839l-.901 10.817c1.895-1.272 3.848-1.907 5.858-1.907 4.16 0 7.362 1.479 9.603 4.437 2.265 2.959 3.398 7.142 3.398 12.55 0 5.062-1.34 9.14-4.022 12.238-2.68 3.097-6.263 4.645-10.747 4.645-2.658 0-5.119-.624-7.384-1.872a14.173 14.173 0 01-5.373-5.27c-1.295-2.241-1.953-4.783-1.977-7.626h9.708c.161 2.103.681 3.732 1.56 4.888.878 1.156 2.01 1.733 3.397 1.733 1.618 0 2.866-.774 3.744-2.322.878-1.572 1.317-3.906 1.317-7.003 0-2.912-.531-5.108-1.594-6.587-1.04-1.48-2.508-2.219-4.403-2.219-1.849 0-3.282.636-4.299 1.907l-.624.867-7.8-2.011zM57.41 22.71h9.811v9.118h-9.81v14.11h-9.292v-14.11h-9.984V22.71h9.984V9.19h9.291v13.52z" fill="url(#paint0_linear)"/><path d="M6.118 65.603V73h-1.21v-6.35H2.96l-.116 2.508c-.064 1.39-.25 2.377-.56 2.96-.31.579-.807.873-1.491.882H.39v-1.114l.307-.028c.338-.045.574-.27.711-.676.141-.41.235-1.215.28-2.413l.117-3.166h4.313zm4.567 7.534c-.921 0-1.627-.274-2.12-.82-.492-.552-.742-1.359-.752-2.42V69c0-1.103.24-1.967.718-2.59.483-.63 1.156-.944 2.017-.944.866 0 1.513.276 1.941.827.429.551.647 1.41.656 2.577v.793H9.018v.171c0 .793.148 1.37.444 1.73.3.36.731.54 1.292.54.355 0 .668-.067.937-.199.273-.137.528-.35.765-.642l.629.765c-.524.739-1.324 1.108-2.4 1.108zm-.137-6.631c-.502 0-.873.173-1.114.52-.242.341-.379.874-.41 1.599h2.912v-.164c-.032-.702-.16-1.203-.383-1.504-.219-.3-.554-.451-1.005-.451zm8.647.123H17.18V73h-1.203v-6.371h-1.99v-1.026h5.21v1.026z" fill="#2E35AC"/><defs><linearGradient id="paint0_linear" x1="0" y1="2" x2="31.518" y2="60.694" gradientUnits="userSpaceOnUse"><stop stop-color="#D10A42"/><stop offset="1" stop-color="#0041CA"/></linearGradient></defs></svg>