<svg width="57" height="63" fill="none" xmlns="http://www.w3.org/2000/svg"><path d="M3.512 21.723L5.55.766h19.966v6.853H12.12l-.736 8.836c1.548-1.038 3.143-1.557 4.786-1.557 3.398 0 6.013 1.208 7.845 3.625 1.85 2.416 2.775 5.833 2.775 10.251 0 4.135-1.095 7.468-3.285 9.998-2.19 2.53-5.117 3.794-8.78 3.794-2.17 0-4.181-.51-6.032-1.529a11.578 11.578 0 01-4.39-4.305c-1.057-1.831-1.595-3.908-1.614-6.23h7.93c.132 1.718.557 3.05 1.275 3.993.717.944 1.642 1.416 2.775 1.416 1.322 0 2.341-.632 3.059-1.897.717-1.284 1.076-3.191 1.076-5.721 0-2.379-.435-4.173-1.303-5.38-.85-1.21-2.048-1.813-3.597-1.813-1.51 0-2.68.519-3.511 1.557l-.51.708-6.372-1.642zm43.386-2.832h8.015v7.448h-8.015v11.526h-7.59V26.34h-8.156v-7.45h8.157V7.846h7.59V18.89z" fill="url(#paint0_linear)"/><path d="M24.118 54.603V62h-1.21v-6.35H20.96l-.116 2.508c-.064 1.39-.25 2.377-.56 2.96-.31.579-.807.873-1.491.882h-.403v-1.114l.307-.028c.338-.045.575-.27.711-.676.141-.41.235-1.215.28-2.413l.117-3.166h4.313zm4.567 7.534c-.921 0-1.627-.274-2.12-.82-.492-.552-.742-1.359-.752-2.42V58c0-1.103.24-1.966.718-2.59.483-.63 1.155-.944 2.017-.944.866 0 1.513.276 1.941.827.429.551.647 1.41.656 2.577v.793h-4.128v.171c0 .793.148 1.37.444 1.73.3.36.731.54 1.292.54.355 0 .668-.067.936-.199.274-.136.53-.35.766-.642l.629.765c-.524.739-1.324 1.108-2.4 1.108zm-.137-6.631c-.501 0-.873.173-1.114.52-.242.341-.379.874-.41 1.599h2.912v-.164c-.032-.702-.16-1.203-.383-1.504-.219-.3-.554-.451-1.005-.451zm8.647.123H35.18V62h-1.203v-6.371h-1.99v-1.026h5.21v1.026z" fill="#2E35AC"/><defs><linearGradient id="paint0_linear" x1="0" y1="2" x2="25.765" y2="49.859" gradientUnits="userSpaceOnUse"><stop stop-color="#D10A42"/><stop offset="1" stop-color="#0041CA"/></linearGradient></defs></svg>