<svg viewBox="0 0 108 75" fill="none" xmlns="http://www.w3.org/2000/svg"><path d="M22.326 32.482c-2.08 2.126-4.356 3.19-6.83 3.19-3.836 0-6.864-1.538-9.082-4.611-2.196-3.098-3.294-7.223-3.294-12.377 0-3.328.624-6.367 1.872-9.118 1.248-2.773 2.982-4.922 5.2-6.448C12.434 1.593 14.93.83 17.681.83c2.842 0 5.373.844 7.592 2.53 2.219 1.688 3.94 4.115 5.166 7.281 1.224 3.143 1.837 6.726 1.837 10.747v3.571c0 8.598-1.895 15.323-5.686 20.177-3.767 4.83-9.117 7.292-16.05 7.384H9.533v-8.459h.658c3.837-.023 6.714-1.017 8.633-2.981 1.941-1.965 3.108-4.83 3.501-8.598zm-4.333-4.507c1.895 0 3.386-1.294 4.472-3.883v-4.507c0-3.305-.45-5.893-1.352-7.765-.902-1.895-2.069-2.843-3.502-2.843-1.41 0-2.554.936-3.432 2.808-.855 1.85-1.283 4.114-1.283 6.795 0 2.912.451 5.212 1.352 6.899.902 1.664 2.15 2.496 3.745 2.496zm50.546 3.155c0 6.98-1.272 12.319-3.814 16.017-2.52 3.697-6.125 5.546-10.816 5.546-4.646 0-8.24-1.79-10.782-5.373-2.52-3.606-3.825-8.76-3.918-15.462v-9.534c0-6.957 1.26-12.272 3.78-15.947C45.507 2.679 49.124.83 53.838.83c4.715 0 8.332 1.826 10.851 5.478 2.52 3.651 3.802 8.863 3.849 15.635v9.187zm-9.846-10.227c0-3.975-.393-6.957-1.179-8.944-.786-1.988-2.01-2.982-3.675-2.982-3.12 0-4.738 3.64-4.853 10.92v12.585c0 4.068.393 7.095 1.179 9.083.809 1.988 2.056 2.981 3.744 2.981 1.594 0 2.773-.924 3.536-2.773.786-1.872 1.202-4.727 1.248-8.563V20.903zm45.762 10.227c0 6.98-1.272 12.319-3.814 16.017-2.52 3.697-6.125 5.546-10.816 5.546-4.646 0-8.24-1.79-10.782-5.373-2.52-3.606-3.825-8.76-3.918-15.462v-9.534c0-6.957 1.26-12.272 3.78-15.947C81.423 2.679 85.04.83 89.754.83s8.332 1.826 10.851 5.478c2.52 3.651 3.802 8.863 3.849 15.635v9.187zm-9.846-10.227c0-3.975-.393-6.957-1.179-8.944-.786-1.988-2.01-2.982-3.675-2.982-3.12 0-4.738 3.64-4.853 10.92v12.585c0 4.068.393 7.095 1.179 9.083.808 1.988 2.056 2.981 3.744 2.981 1.594 0 2.773-.924 3.536-2.773.786-1.872 1.202-4.727 1.248-8.563V20.903z" fill="url(#paint0_linear)"/><path d="M2.912 70.849H2.23V74H1.02v-7.397h1.21v3.131h.601l2.017-3.13H6.29l-2.468 3.52L6.467 74H4.949l-2.037-3.151zM7.738 74v-7.397h2.482c.847 0 1.494.174 1.941.52.447.346.67.85.67 1.51 0 .343-.089.65-.266.924a1.688 1.688 0 01-.78.629c.378.1.681.303.91.608.232.305.348.674.348 1.107 0 .684-.214 1.206-.643 1.566-.423.355-1.025.533-1.804.533H7.738zm1.203-3.247v2.228h1.668c.816 0 1.224-.373 1.224-1.12 0-.739-.412-1.108-1.237-1.108H8.94zm0-1.012h1.265c.943 0 1.415-.346 1.415-1.039 0-.697-.444-1.055-1.333-1.073H8.941v2.112zm6.078 5.114h-1.026l3.493-10.808h1.019l-3.486 10.808zm8.49-2.53l1.982-5.722h1.504V74h-1.203v-5.1L23.926 74h-.827l-1.908-5.223V74h-1.203v-7.397h1.559l1.962 5.722z" fill="#2E35AC"/><defs><linearGradient id="paint0_linear" x1="0" y1="3" x2="22.444" y2="41.104" gradientUnits="userSpaceOnUse"><stop stop-color="#D10A42"/><stop offset="1" stop-color="#0041CA"/></linearGradient></defs></svg>