<svg viewBox="0 0 72 75" fill="none" xmlns="http://www.w3.org/2000/svg"><path d="M32.9 7.174L16.953 52H6.587L22.604 9.67H2.357V1.523H32.9v5.651zM68.539 31.13c0 6.98-1.272 12.319-3.814 16.017-2.52 3.697-6.125 5.546-10.816 5.546-4.646 0-8.24-1.79-10.782-5.373-2.52-3.606-3.825-8.76-3.918-15.462v-9.534c0-6.957 1.26-12.272 3.78-15.947C45.507 2.679 49.124.83 53.838.83c4.715 0 8.332 1.826 10.851 5.478 2.52 3.651 3.802 8.863 3.849 15.635v9.187zm-9.846-10.227c0-3.975-.393-6.957-1.179-8.944-.786-1.988-2.01-2.982-3.675-2.982-3.12 0-4.738 3.64-4.853 10.92v12.585c0 4.068.393 7.095 1.179 9.083.809 1.988 2.056 2.981 3.744 2.981 1.594 0 2.773-.924 3.536-2.773.786-1.872 1.202-4.727 1.248-8.563V20.903z" fill="url(#paint0_linear)"/><path d="M4.532 72.325l1.983-5.722h1.504V74H6.815v-5.1L4.95 74h-.827l-1.907-5.223V74H1.012v-7.397H2.57l1.962 5.722zM13.761 74c-.073-.16-.126-.428-.157-.807-.429.63-.976.944-1.641.944-.67 0-1.194-.187-1.572-.56-.374-.38-.56-.91-.56-1.594 0-.752.254-1.349.765-1.79.51-.443 1.21-.668 2.098-.677h.889v-.787c0-.442-.098-.756-.294-.943-.196-.187-.494-.28-.895-.28-.365 0-.661.11-.89.328a1.076 1.076 0 00-.34.82h-1.21c0-.378.11-.738.334-1.08.223-.346.524-.617.902-.813a2.71 2.71 0 011.265-.294c.757 0 1.33.189 1.723.567.396.374.599.92.608 1.64v3.733c.005.57.082 1.064.233 1.484V74H13.76zm-1.613-.964c.296 0 .578-.082.847-.246.269-.164.465-.37.588-.615V70.41h-.684c-.574.01-1.027.14-1.36.39-.333.246-.499.592-.499 1.039 0 .42.084.724.253.916.169.187.453.28.855.28zm5.844-6.433v6.365h2.085v-6.365h1.203v6.365h2.092v-6.365h1.21V74h-7.807v-7.397h1.217zm12.53 0h1.204V74h-1.203v-5.394L27.843 74h-1.21v-7.397h1.21v5.4l2.68-5.4zM38.856 74h-1.204v-3.158h-2.666V74H33.77v-7.397h1.216v3.207h2.666v-3.207h1.203V74z" fill="#2E35AC"/><defs><linearGradient id="paint0_linear" x1="0" y1="3" x2="31.023" y2="62.422" gradientUnits="userSpaceOnUse"><stop stop-color="#D10A42"/><stop offset="1" stop-color="#0041CA"/></linearGradient></defs></svg>