<svg width="59" height="63" fill="none" xmlns="http://www.w3.org/2000/svg"><path d="M26.876 5.382L13.849 42H5.38L18.465 7.42H1.925V.767h24.951v4.616zm29.113 19.57c0 5.701-1.038 10.062-3.115 13.083-2.058 3.021-5.003 4.531-8.836 4.531-3.795 0-6.73-1.463-8.807-4.39-2.059-2.945-3.125-7.155-3.2-12.63v-7.788c0-5.683 1.028-10.026 3.086-13.028C37.175 1.71 40.13.2 43.981.2c3.852 0 6.807 1.49 8.865 4.474 2.058 2.983 3.106 7.24 3.143 12.772v7.505zm-8.043-8.355c0-3.248-.32-5.683-.963-7.307-.641-1.624-1.642-2.436-3.002-2.436-2.548 0-3.87 2.974-3.964 8.921v10.28c0 3.324.32 5.797.962 7.42.661 1.624 1.68 2.436 3.06 2.436 1.302 0 2.265-.755 2.888-2.266.642-1.529.981-3.86 1.02-6.995V16.597z" fill="url(#paint0_linear)"/><path d="M13.532 60.325l1.983-5.722h1.504V62h-1.204v-5.1L13.95 62h-.827l-1.907-5.223V62h-1.203v-7.397h1.558l1.962 5.722zM22.761 62c-.073-.16-.126-.428-.157-.807-.429.63-.976.944-1.641.944-.67 0-1.194-.187-1.572-.56-.374-.38-.56-.91-.56-1.594 0-.752.254-1.349.765-1.79.51-.443 1.21-.668 2.098-.677h.889v-.786c0-.443-.098-.757-.294-.944-.196-.187-.494-.28-.895-.28-.365 0-.661.11-.89.328a1.076 1.076 0 00-.34.82h-1.21c0-.378.11-.738.334-1.08.223-.346.524-.617.902-.813a2.71 2.71 0 011.265-.294c.757 0 1.33.189 1.723.567.396.374.599.92.608 1.64v3.733c.005.57.082 1.064.233 1.484V62H22.76zm-1.613-.964c.296 0 .578-.082.847-.246.269-.164.465-.37.588-.615V58.41h-.684c-.574.01-1.027.14-1.36.39-.333.246-.499.592-.499 1.039 0 .42.084.724.253.916.169.187.453.28.855.28zm5.844-6.433v6.365h2.085v-6.365h1.203v6.365h2.092v-6.365h1.21V62h-7.807v-7.397h1.217zm12.53 0h1.204V62h-1.203v-5.394L36.843 62h-1.21v-7.397h1.21v5.4l2.68-5.4zM47.856 62h-1.204v-3.158h-2.666V62H42.77v-7.397h1.216v3.207h2.666v-3.207h1.203V62z" fill="#2E35AC"/><defs><linearGradient id="paint0_linear" x1="0" y1="2" x2="25.27" y2="50.587" gradientUnits="userSpaceOnUse"><stop stop-color="#D10A42"/><stop offset="1" stop-color="#0041CA"/></linearGradient></defs></svg>