<svg width="89" height="63" fill="none" xmlns="http://www.w3.org/2000/svg"><path d="M9.827 17.73h3.88c1.473 0 2.549-.51 3.229-1.53.698-1.038 1.047-2.416 1.047-4.135 0-1.642-.358-2.917-1.076-3.823-.698-.925-1.642-1.388-2.832-1.388-1.114 0-2.03.435-2.747 1.303-.698.869-1.048 1.964-1.048 3.285H2.266c0-2.152.49-4.078 1.472-5.777 1-1.718 2.389-3.059 4.163-4.021C9.695.68 11.677.199 13.85.199c3.795 0 6.768 1.048 8.92 3.144 2.153 2.095 3.229 4.965 3.229 8.61 0 1.868-.49 3.605-1.473 5.21-.962 1.586-2.237 2.804-3.823 3.653 1.945.831 3.39 2.077 4.333 3.739.963 1.661 1.445 3.625 1.445 5.89 0 3.663-1.171 6.599-3.512 8.808-2.323 2.209-5.381 3.313-9.176 3.313-3.53 0-6.4-1.085-8.61-3.256-2.19-2.19-3.285-5.06-3.285-8.61h8.015c0 1.473.387 2.71 1.161 3.71s1.756 1.501 2.946 1.501c1.378 0 2.463-.51 3.256-1.53.812-1.019 1.218-2.378 1.218-4.077 0-4.06-1.576-6.099-4.73-6.117H9.828V17.73zm23.025 3.993L34.89.766h19.965v6.853H41.461l-.736 8.836c1.548-1.038 3.143-1.557 4.786-1.557 3.398 0 6.013 1.208 7.844 3.625 1.85 2.416 2.776 5.833 2.776 10.251 0 4.135-1.095 7.468-3.285 9.998-2.19 2.53-5.117 3.794-8.78 3.794-2.17 0-4.182-.51-6.032-1.529a11.578 11.578 0 01-4.39-4.305c-1.057-1.831-1.595-3.908-1.614-6.23h7.93c.132 1.718.557 3.05 1.274 3.993.718.944 1.643 1.416 2.776 1.416 1.321 0 2.34-.632 3.058-1.897.718-1.284 1.077-3.191 1.077-5.721 0-2.379-.435-4.173-1.303-5.38-.85-1.21-2.049-1.813-3.597-1.813-1.51 0-2.68.519-3.512 1.557l-.51.708-6.371-1.642zm52.477 3.228c0 5.702-1.038 10.063-3.115 13.084-2.058 3.021-5.003 4.531-8.836 4.531-3.795 0-6.73-1.463-8.808-4.39-2.058-2.945-3.124-7.155-3.2-12.63v-7.788c0-5.683 1.03-10.026 3.087-13.028C66.515 1.71 69.47.2 73.321.2c3.852 0 6.807 1.49 8.865 4.474 2.057 2.983 3.105 7.24 3.143 12.772v7.505zm-8.043-8.354c0-3.248-.32-5.683-.963-7.307-.642-1.624-1.642-2.436-3.002-2.436-2.549 0-3.87 2.974-3.965 8.921v10.28c0 3.324.321 5.797.963 7.42.661 1.624 1.68 2.436 3.059 2.436 1.303 0 2.266-.755 2.889-2.266.642-1.529.981-3.86 1.02-6.995V16.597z" fill="url(#paint0_linear)"/><path d="M34.532 60.325l1.983-5.722h1.504V62h-1.204v-5.1L34.95 62h-.827l-1.907-5.223V62h-1.203v-7.397h1.558l1.962 5.722zm8.067 1.812c-.92 0-1.627-.274-2.12-.82-.492-.552-.742-1.359-.752-2.42V58c0-1.103.24-1.966.718-2.59.483-.63 1.156-.944 2.017-.944.866 0 1.513.276 1.941.827.429.551.648 1.41.657 2.577v.793h-4.13v.171c0 .793.149 1.37.445 1.73.3.36.731.54 1.292.54.355 0 .668-.067.936-.199.274-.136.53-.35.766-.642l.629.765c-.524.739-1.324 1.108-2.4 1.108zm-.137-6.631c-.501 0-.873.173-1.114.52-.242.341-.379.874-.41 1.599h2.912v-.164c-.032-.702-.16-1.203-.383-1.504-.219-.3-.554-.451-1.005-.451zm6.624 5.599c.401 0 .722-.124.964-.37.241-.25.373-.606.396-1.066h1.142c-.028.71-.28 1.301-.759 1.77-.474.465-1.055.698-1.743.698-.916 0-1.616-.287-2.099-.862-.478-.578-.718-1.437-.718-2.577v-.813c0-1.117.24-1.964.718-2.543.479-.584 1.176-.875 2.092-.875.757 0 1.356.24 1.798.718.447.478.683 1.132.71 1.962h-1.14c-.028-.547-.16-.957-.397-1.231-.233-.273-.556-.41-.97-.41-.539 0-.937.178-1.197.533-.26.351-.394.93-.404 1.736v.944c0 .87.128 1.485.383 1.846.26.36.668.54 1.224.54zm8.572-5.476h-2.016V62h-1.204v-6.371H52.45v-1.026h5.21v1.026z" fill="#2E35AC"/><defs><linearGradient id="paint0_linear" x1="0" y1="2" x2="19.022" y2="57.171" gradientUnits="userSpaceOnUse"><stop stop-color="#D10A42"/><stop offset="1" stop-color="#0041CA"/></linearGradient></defs></svg>