<svg viewBox="0 0 108 75" fill="none" xmlns="http://www.w3.org/2000/svg"><path d="M12.03 22.29h4.75c1.802 0 3.12-.624 3.951-1.872.856-1.272 1.283-2.959 1.283-5.062 0-2.01-.439-3.57-1.317-4.68-.855-1.133-2.011-1.699-3.467-1.699-1.364 0-2.485.532-3.363 1.595-.855 1.063-1.283 2.403-1.283 4.021h-9.81c0-2.634.6-4.992 1.802-7.072C5.801 5.418 7.5 3.777 9.672 2.598 11.868 1.42 14.295.83 16.952.83c4.646 0 8.286 1.283 10.921 3.848 2.635 2.566 3.952 6.079 3.952 10.54 0 2.287-.6 4.414-1.802 6.378-1.18 1.942-2.74 3.432-4.68 4.472 2.38 1.017 4.148 2.543 5.303 4.576 1.18 2.034 1.769 4.438 1.769 7.212 0 4.483-1.433 8.077-4.3 10.781-2.842 2.704-6.586 4.056-11.232 4.056-4.322 0-7.835-1.329-10.539-3.986-2.68-2.681-4.021-6.194-4.021-10.54h9.81c0 1.803.475 3.317 1.422 4.542.948 1.225 2.15 1.837 3.606 1.837 1.687 0 3.016-.624 3.986-1.872.994-1.248 1.491-2.912 1.491-4.992 0-4.969-1.93-7.465-5.79-7.488H12.03V22.29zm28.185 4.888L42.71 1.523h24.44v8.39H50.755l-.901 10.817c1.895-1.272 3.848-1.907 5.858-1.907 4.16 0 7.362 1.479 9.603 4.437 2.265 2.959 3.398 7.142 3.398 12.55 0 5.062-1.34 9.14-4.022 12.238-2.68 3.097-6.263 4.645-10.747 4.645-2.657 0-5.119-.624-7.384-1.872a14.174 14.174 0 01-5.373-5.27c-1.295-2.241-1.953-4.783-1.977-7.626h9.707c.162 2.103.682 3.732 1.56 4.888.879 1.156 2.011 1.733 3.398 1.733 1.618 0 2.866-.774 3.744-2.322.878-1.572 1.317-3.906 1.317-7.003 0-2.912-.531-5.108-1.594-6.587-1.04-1.48-2.508-2.219-4.403-2.219-1.849 0-3.282.636-4.299 1.907l-.624.867-7.8-2.011zm64.24 3.952c0 6.98-1.272 12.319-3.814 16.017-2.52 3.697-6.125 5.546-10.816 5.546-4.646 0-8.24-1.79-10.782-5.373-2.52-3.606-3.825-8.76-3.918-15.462v-9.534c0-6.957 1.26-12.272 3.78-15.947C81.423 2.679 85.04.83 89.754.83s8.332 1.826 10.851 5.478c2.52 3.651 3.802 8.863 3.849 15.635v9.187zm-9.846-10.227c0-3.975-.393-6.957-1.179-8.944-.786-1.988-2.01-2.982-3.675-2.982-3.12 0-4.738 3.64-4.853 10.92v12.585c0 4.068.393 7.095 1.179 9.083.808 1.988 2.056 2.981 3.744 2.981 1.594 0 2.773-.924 3.536-2.773.786-1.872 1.202-4.727 1.248-8.563V20.903z" fill="url(#paint0_linear)"/><path d="M4.532 72.325l1.983-5.722h1.504V74H6.815v-5.1L4.95 74h-.827l-1.907-5.223V74H1.012v-7.397H2.57l1.962 5.722zm8.067 1.812c-.92 0-1.627-.274-2.12-.82-.492-.552-.742-1.359-.751-2.42V70c0-1.103.239-1.967.717-2.59.483-.63 1.156-.944 2.017-.944.866 0 1.513.276 1.941.827.429.551.647 1.41.657 2.577v.793h-4.13v.171c0 .793.149 1.37.445 1.73.3.36.731.54 1.292.54.356 0 .668-.067.937-.199.273-.137.528-.35.765-.642l.629.765c-.524.739-1.324 1.108-2.4 1.108zm-.137-6.631c-.501 0-.873.173-1.114.52-.242.341-.379.874-.41 1.599h2.912v-.164c-.032-.702-.16-1.203-.383-1.504-.219-.3-.554-.451-1.005-.451zm6.624 5.599c.401 0 .722-.124.964-.37.241-.25.373-.606.396-1.066h1.142c-.027.71-.28 1.301-.759 1.77-.474.465-1.055.698-1.743.698-.916 0-1.616-.287-2.099-.862-.478-.578-.717-1.437-.717-2.577v-.813c0-1.117.239-1.964.717-2.543.479-.584 1.176-.875 2.092-.875.757 0 1.356.24 1.798.718.447.478.684 1.132.71 1.962h-1.14c-.028-.547-.16-.958-.397-1.231-.233-.273-.556-.41-.97-.41-.539 0-.937.178-1.197.533-.26.351-.394.93-.403 1.736v.944c0 .87.127 1.485.382 1.846.26.36.668.54 1.224.54zm8.572-5.476h-2.016V74h-1.203v-6.371h-1.99v-1.026h5.21v1.026z" fill="#2E35AC"/><defs><linearGradient id="paint0_linear" x1="0" y1="3" x2="23.475" y2="70.448" gradientUnits="userSpaceOnUse"><stop stop-color="#D10A42"/><stop offset="1" stop-color="#0041CA"/></linearGradient></defs></svg>