<svg xmlns="http://www.w3.org/2000/svg" xmlns:xlink="http://www.w3.org/1999/xlink"><defs>
<linearGradient id="paint0_linear" x1="0" y1="3" x2="22.4438" y2="41.104" gradientUnits="userSpaceOnUse">
<stop stop-color="#D10A42"/>
<stop offset="1" stop-color="#0041CA"/>
</linearGradient>

<linearGradient id="paint0_linear" x1="0" y1="3" x2="31.023" y2="62.4222" gradientUnits="userSpaceOnUse">
<stop stop-color="#D10A42"/>
<stop offset="1" stop-color="#0041CA"/>
</linearGradient>

<linearGradient id="paint0_linear" x1="0" y1="3" x2="23.4754" y2="70.4479" gradientUnits="userSpaceOnUse">
<stop stop-color="#D10A42"/>
<stop offset="1" stop-color="#0041CA"/>
</linearGradient>

<linearGradient id="paint0_linear" x1="0" y1="2" x2="31.5181" y2="60.6935" gradientUnits="userSpaceOnUse">
<stop stop-color="#D10A42"/>
<stop offset="1" stop-color="#0041CA"/>
</linearGradient>
<linearGradient id="paint0_linear" x1="19.774" y1="0" x2="105.785" y2="10.644" gradientUnits="userSpaceOnUse"><stop stop-color="#ED0233"/><stop offset="1" stop-color="#003EB7"/></linearGradient><linearGradient id="paint0_linear" x1="19.774" y1="0" x2="105.785" y2="10.644" gradientUnits="userSpaceOnUse"><stop stop-color="#ED0233"/><stop offset="1" stop-color="#003EB7"/></linearGradient><linearGradient id="paint0_linear" x1="9.981" y1="0" x2="327.72" y2="518.087" gradientUnits="userSpaceOnUse"><stop stop-color="#D10A42"/><stop offset="1" stop-color="#00359F"/></linearGradient></defs><symbol id="advantage_1" viewBox="0 0 108 75">
<path d="M22.3262 32.4819C20.2461 34.6082 17.9696 35.6714 15.4966 35.6714C11.66 35.6714 8.63232 34.1344 6.41357 31.0605C4.21794 27.9635 3.12012 23.8381 3.12012 18.6841C3.12012 15.356 3.74414 12.3167 4.99219 9.56641C6.24023 6.79297 7.97363 4.64355 10.1924 3.11816C12.4342 1.59277 14.9303 0.830078 17.6807 0.830078C20.5234 0.830078 23.0542 1.67367 25.2729 3.36084C27.4917 5.04801 29.2135 7.47477 30.4385 10.6411C31.6634 13.7843 32.2759 17.3667 32.2759 21.3882V24.959C32.2759 33.5566 30.3807 40.2822 26.5903 45.1357C22.8231 49.9661 17.4727 52.4276 10.5391 52.52H9.53369V44.061H10.1924C14.029 44.0379 16.9064 43.0441 18.8247 41.0796C20.7661 39.1151 21.9333 36.2492 22.3262 32.4819ZM17.9927 27.9751C19.8879 27.9751 21.3786 26.6808 22.4648 24.0923V19.5854C22.4648 16.2804 22.0142 13.6919 21.1128 11.8198C20.2114 9.92464 19.0443 8.97705 17.6113 8.97705C16.2015 8.97705 15.0575 9.91309 14.1792 11.7852C13.3241 13.6341 12.8965 15.8991 12.8965 18.5801C12.8965 21.4922 13.3472 23.7918 14.2485 25.479C15.1499 27.1431 16.3979 27.9751 17.9927 27.9751ZM68.5386 31.1299C68.5386 38.1097 67.2674 43.4486 64.7251 47.1465C62.2059 50.8444 58.6004 52.6934 53.9087 52.6934C49.2632 52.6934 45.6693 50.9022 43.127 47.3198C40.6077 43.7144 39.3019 38.5604 39.2095 31.8579V22.3242C39.2095 15.3675 40.4691 10.0518 42.9883 6.37695C45.5075 2.67904 49.1245 0.830078 53.8394 0.830078C58.5542 0.830078 62.1712 2.65592 64.6904 6.30762C67.2096 9.95931 68.4924 15.1711 68.5386 21.9429V31.1299ZM58.6929 20.9028C58.6929 16.9276 58.3 13.9461 57.5142 11.9585C56.7284 9.97087 55.5034 8.97705 53.8394 8.97705C50.7192 8.97705 49.1014 12.6172 48.9858 19.8975V32.4819C48.9858 36.5496 49.3787 39.5773 50.1646 41.5649C50.9735 43.5526 52.2215 44.5464 53.9087 44.5464C55.5034 44.5464 56.6821 43.6219 57.4448 41.7729C58.2306 39.9009 58.6466 37.0465 58.6929 33.21V20.9028ZM104.455 31.1299C104.455 38.1097 103.183 43.4486 100.641 47.1465C98.1219 50.8444 94.5164 52.6934 89.8247 52.6934C85.1792 52.6934 81.5853 50.9022 79.043 47.3198C76.5238 43.7144 75.2179 38.5604 75.1255 31.8579V22.3242C75.1255 15.3675 76.3851 10.0518 78.9043 6.37695C81.4235 2.67904 85.0405 0.830078 89.7554 0.830078C94.4702 0.830078 98.0872 2.65592 100.606 6.30762C103.126 9.95931 104.408 15.1711 104.455 21.9429V31.1299ZM94.6089 20.9028C94.6089 16.9276 94.216 13.9461 93.4302 11.9585C92.6444 9.97087 91.4194 8.97705 89.7554 8.97705C86.6353 8.97705 85.0174 12.6172 84.9019 19.8975V32.4819C84.9019 36.5496 85.2948 39.5773 86.0806 41.5649C86.8895 43.5526 88.1375 44.5464 89.8247 44.5464C91.4194 44.5464 92.5981 43.6219 93.3608 41.7729C94.1466 39.9009 94.5627 37.0465 94.6089 33.21V20.9028Z" fill="url(#paint0_linear)"/>
<path d="M2.91211 70.8486H2.22852V74H1.01855V66.6035H2.22852V69.7344H2.83008L4.84668 66.6035H6.28906L3.82129 70.124L6.4668 74H4.94922L2.91211 70.8486ZM7.73828 74V66.6035H10.2197C11.0674 66.6035 11.7145 66.7767 12.1611 67.123C12.6077 67.4694 12.8311 67.973 12.8311 68.6338C12.8311 68.9756 12.7422 69.2832 12.5645 69.5566C12.3867 69.8301 12.127 70.0397 11.7852 70.1855C12.1634 70.2858 12.4665 70.4886 12.6943 70.7939C12.9268 71.0993 13.043 71.4684 13.043 71.9014C13.043 72.585 12.8288 73.1068 12.4004 73.4668C11.9766 73.8223 11.375 74 10.5957 74H7.73828ZM8.94141 70.7529V72.9814H10.6094C11.4251 72.9814 11.833 72.6077 11.833 71.8604C11.833 71.1221 11.4206 70.7529 10.5957 70.7529H8.94141ZM8.94141 69.7412H10.2061C11.1494 69.7412 11.6211 69.3949 11.6211 68.7021C11.6211 68.0049 11.1768 67.6471 10.2881 67.6289H8.94141V69.7412ZM15.0186 74.8545H13.9932L17.4863 64.0469H18.5049L15.0186 74.8545ZM23.5088 72.3252L25.4912 66.6035H26.9951V74H25.792V68.9004L23.9258 74H23.0986L21.1914 68.7773V74H19.9883V66.6035H21.5469L23.5088 72.3252Z" fill="#2E35AC"/>

</symbol><symbol id="advantage_2" viewBox="0 0 72 75">
<path d="M32.8999 7.17432L16.9526 52H6.58691L22.6035 9.67041H2.35742V1.52344H32.8999V7.17432ZM68.5386 31.1299C68.5386 38.1097 67.2674 43.4486 64.7251 47.1465C62.2059 50.8444 58.6004 52.6934 53.9087 52.6934C49.2632 52.6934 45.6693 50.9022 43.127 47.3198C40.6077 43.7144 39.3019 38.5604 39.2095 31.8579V22.3242C39.2095 15.3675 40.4691 10.0518 42.9883 6.37695C45.5075 2.67904 49.1245 0.830078 53.8394 0.830078C58.5542 0.830078 62.1712 2.65592 64.6904 6.30762C67.2096 9.95931 68.4924 15.1711 68.5386 21.9429V31.1299ZM58.6929 20.9028C58.6929 16.9276 58.3 13.9461 57.5142 11.9585C56.7284 9.97087 55.5034 8.97705 53.8394 8.97705C50.7192 8.97705 49.1014 12.6172 48.9858 19.8975V32.4819C48.9858 36.5496 49.3787 39.5773 50.1646 41.5649C50.9735 43.5526 52.2215 44.5464 53.9087 44.5464C55.5034 44.5464 56.6821 43.6219 57.4448 41.7729C58.2306 39.9009 58.6466 37.0465 58.6929 33.21V20.9028Z" fill="url(#paint0_linear)"/>
<path d="M4.53223 72.3252L6.51465 66.6035H8.01855V74H6.81543V68.9004L4.94922 74H4.12207L2.21484 68.7773V74H1.01172V66.6035H2.57031L4.53223 72.3252ZM13.7607 74C13.6878 73.8405 13.6354 73.5716 13.6035 73.1934C13.1751 73.8223 12.6283 74.1367 11.9629 74.1367C11.293 74.1367 10.7689 73.9499 10.3906 73.5762C10.0169 73.1979 9.83008 72.667 9.83008 71.9834C9.83008 71.2314 10.0853 70.6344 10.5957 70.1924C11.1061 69.7503 11.8057 69.5247 12.6943 69.5156H13.583V68.7295C13.583 68.2874 13.485 67.973 13.2891 67.7861C13.0931 67.5993 12.7946 67.5059 12.3936 67.5059C12.029 67.5059 11.7327 67.6152 11.5049 67.834C11.277 68.0482 11.1631 68.3216 11.1631 68.6543H9.95312C9.95312 68.276 10.0648 67.916 10.2881 67.5742C10.5114 67.2279 10.8122 66.9567 11.1904 66.7607C11.5687 66.5648 11.9902 66.4668 12.4551 66.4668C13.2116 66.4668 13.7858 66.6559 14.1777 67.0342C14.5742 67.4079 14.777 67.9548 14.7861 68.6748V72.4072C14.7907 72.9769 14.8682 73.4714 15.0186 73.8906V74H13.7607ZM12.1475 73.0361C12.4437 73.0361 12.7262 72.9541 12.9951 72.79C13.264 72.626 13.46 72.4209 13.583 72.1748V70.4111H12.8994C12.3252 70.4202 11.8717 70.5501 11.5391 70.8008C11.2064 71.0469 11.04 71.3932 11.04 71.8398C11.04 72.2591 11.1243 72.5645 11.293 72.7559C11.4616 72.9427 11.7464 73.0361 12.1475 73.0361ZM17.9922 66.6035V72.9678H20.0771V66.6035H21.2803V72.9678H23.3721V66.6035H24.582V74H16.7754V66.6035H17.9922ZM30.5225 66.6035H31.7256V74H30.5225V68.6064L27.8428 74H26.6328V66.6035H27.8428V72.0039L30.5225 66.6035ZM38.8555 74H37.6523V70.8418H34.9863V74H33.7695V66.6035H34.9863V69.8096H37.6523V66.6035H38.8555V74Z" fill="#2E35AC"/>

</symbol><symbol id="advantage_3" viewBox="0 0 108 75">
<path d="M12.0298 22.2896H16.7793C18.582 22.2896 19.8994 21.6655 20.7314 20.4175C21.5866 19.1463 22.0142 17.4591 22.0142 15.356C22.0142 13.3452 21.575 11.7852 20.6968 10.6758C19.8416 9.54329 18.686 8.97705 17.23 8.97705C15.8664 8.97705 14.7454 9.50863 13.8672 10.5718C13.012 11.6349 12.5845 12.9754 12.5845 14.5933H2.77344C2.77344 11.9585 3.37435 9.60107 4.57617 7.521C5.80111 5.41781 7.49984 3.77686 9.67236 2.59814C11.868 1.41943 14.2948 0.830078 16.9526 0.830078C21.5981 0.830078 25.2383 2.11279 27.873 4.67822C30.5078 7.24365 31.8252 10.7567 31.8252 15.2173C31.8252 17.5054 31.2243 19.6317 30.0225 21.5962C28.8438 23.5376 27.2837 25.0283 25.3423 26.0684C27.7228 27.0853 29.4909 28.6107 30.6465 30.6445C31.8252 32.6784 32.4146 35.082 32.4146 37.8555C32.4146 42.3392 30.9816 45.9331 28.1157 48.6372C25.2729 51.3413 21.5288 52.6934 16.8833 52.6934C12.5614 52.6934 9.04834 51.3644 6.34424 48.7065C3.66325 46.0256 2.32275 42.5125 2.32275 38.1675H12.1338C12.1338 39.9702 12.6076 41.484 13.5552 42.709C14.5028 43.9339 15.7046 44.5464 17.1606 44.5464C18.8478 44.5464 20.1768 43.9224 21.1475 42.6743C22.1413 41.4263 22.6382 39.7622 22.6382 37.6821C22.6382 32.7131 20.7083 30.217 16.8486 30.1938H12.0298V22.2896ZM40.2148 27.1777L42.7109 1.52344H67.1519V9.91309H50.7539L49.8525 20.7295C51.7477 19.4583 53.7007 18.8228 55.7114 18.8228C59.8716 18.8228 63.0726 20.3019 65.3145 23.2603C67.5794 26.2186 68.7119 30.4019 68.7119 35.8101C68.7119 40.8716 67.3714 44.9508 64.6904 48.0479C62.0094 51.1449 58.4271 52.6934 53.9434 52.6934C51.2855 52.6934 48.8241 52.0693 46.5591 50.8213C44.2941 49.5501 42.5029 47.7936 41.1855 45.5518C39.8913 43.3099 39.2326 40.7676 39.2095 37.9248H48.9165C49.0783 40.028 49.5983 41.6574 50.4766 42.813C51.3548 43.9686 52.4873 44.5464 53.874 44.5464C55.4919 44.5464 56.7399 43.7721 57.6182 42.2236C58.4964 40.652 58.9355 38.3177 58.9355 35.2207C58.9355 32.3086 58.404 30.113 57.3408 28.6338C56.3008 27.1546 54.8332 26.415 52.938 26.415C51.089 26.415 49.6561 27.0506 48.6392 28.3218L48.0151 29.1885L40.2148 27.1777ZM104.455 31.1299C104.455 38.1097 103.183 43.4486 100.641 47.1465C98.1219 50.8444 94.5164 52.6934 89.8247 52.6934C85.1792 52.6934 81.5853 50.9022 79.043 47.3198C76.5238 43.7144 75.2179 38.5604 75.1255 31.8579V22.3242C75.1255 15.3675 76.3851 10.0518 78.9043 6.37695C81.4235 2.67904 85.0405 0.830078 89.7554 0.830078C94.4702 0.830078 98.0872 2.65592 100.606 6.30762C103.126 9.95931 104.408 15.1711 104.455 21.9429V31.1299ZM94.6089 20.9028C94.6089 16.9276 94.216 13.9461 93.4302 11.9585C92.6444 9.97087 91.4194 8.97705 89.7554 8.97705C86.6353 8.97705 85.0174 12.6172 84.9019 19.8975V32.4819C84.9019 36.5496 85.2948 39.5773 86.0806 41.5649C86.8895 43.5526 88.1375 44.5464 89.8247 44.5464C91.4194 44.5464 92.5981 43.6219 93.3608 41.7729C94.1466 39.9009 94.5627 37.0465 94.6089 33.21V20.9028Z" fill="url(#paint0_linear)"/>
<path d="M4.53223 72.3252L6.51465 66.6035H8.01855V74H6.81543V68.9004L4.94922 74H4.12207L2.21484 68.7773V74H1.01172V66.6035H2.57031L4.53223 72.3252ZM12.5986 74.1367C11.6781 74.1367 10.9717 73.8633 10.4795 73.3164C9.9873 72.765 9.73665 71.9583 9.72754 70.8965V70.001C9.72754 68.8981 9.9668 68.0345 10.4453 67.4102C10.9284 66.7812 11.6006 66.4668 12.4619 66.4668C13.3278 66.4668 13.9749 66.7425 14.4033 67.2939C14.8317 67.8454 15.0505 68.7044 15.0596 69.8711V70.6641H10.9307V70.835C10.9307 71.6279 11.0788 72.2044 11.375 72.5645C11.6758 72.9245 12.1064 73.1045 12.667 73.1045C13.0225 73.1045 13.3346 73.0384 13.6035 72.9062C13.877 72.7695 14.1322 72.5553 14.3691 72.2637L14.998 73.0293C14.474 73.7676 13.6742 74.1367 12.5986 74.1367ZM12.4619 67.5059C11.9606 67.5059 11.5892 67.679 11.3477 68.0254C11.1061 68.3672 10.9694 68.9004 10.9375 69.625H13.8496V69.4609C13.8177 68.7591 13.6901 68.2578 13.4668 67.957C13.248 67.6562 12.9131 67.5059 12.4619 67.5059ZM19.0859 73.1045C19.487 73.1045 19.8083 72.9814 20.0498 72.7354C20.2913 72.4847 20.4235 72.1292 20.4463 71.6689H21.5879C21.5605 72.3799 21.3076 72.9701 20.8291 73.4395C20.3551 73.9043 19.7741 74.1367 19.0859 74.1367C18.1699 74.1367 17.4704 73.8496 16.9873 73.2754C16.5088 72.6966 16.2695 71.8376 16.2695 70.6982V69.8848C16.2695 68.7682 16.5088 67.9206 16.9873 67.3418C17.4658 66.7585 18.1631 66.4668 19.0791 66.4668C19.8356 66.4668 20.4349 66.7061 20.877 67.1846C21.3236 67.6631 21.5605 68.3171 21.5879 69.1465H20.4463C20.4189 68.5996 20.2868 68.1895 20.0498 67.916C19.8174 67.6426 19.4938 67.5059 19.0791 67.5059C18.5413 67.5059 18.1426 67.6836 17.8828 68.0391C17.623 68.39 17.4886 68.9688 17.4795 69.7754V70.7188C17.4795 71.5892 17.6071 72.2044 17.8623 72.5645C18.1221 72.9245 18.5299 73.1045 19.0859 73.1045ZM27.6582 67.6289H25.6416V74H24.4385V67.6289H22.4492V66.6035H27.6582V67.6289Z" fill="#2E35AC"/>

</symbol><symbol id="advantage_4" viewBox="0 0 70 74">
<path d="M4.29883 26.1777L6.79492 0.523438H31.2358V8.91309H14.8379L13.9365 19.7295C15.8317 18.4583 17.7847 17.8228 19.7954 17.8228C23.9556 17.8228 27.1566 19.3019 29.3984 22.2603C31.6634 25.2186 32.7959 29.4019 32.7959 34.8101C32.7959 39.8716 31.4554 43.9508 28.7744 47.0479C26.0934 50.1449 22.5111 51.6934 18.0273 51.6934C15.3695 51.6934 12.908 51.0693 10.6431 49.8213C8.37809 48.5501 6.58691 46.7936 5.26953 44.5518C3.97526 42.3099 3.31657 39.7676 3.29346 36.9248H13.0005C13.1623 39.028 13.6823 40.6574 14.5605 41.813C15.4388 42.9686 16.5713 43.5464 17.958 43.5464C19.5758 43.5464 20.8239 42.7721 21.7021 41.2236C22.5804 39.652 23.0195 37.3177 23.0195 34.2207C23.0195 31.3086 22.488 29.113 21.4248 27.6338C20.3848 26.1546 18.9172 25.415 17.022 25.415C15.173 25.415 13.7401 26.0506 12.7231 27.3218L12.0991 28.1885L4.29883 26.1777ZM57.4102 22.7109H67.2212V31.8286H57.4102V45.9385H48.1191V31.8286H38.1348V22.7109H48.1191V9.19043H57.4102V22.7109Z" fill="url(#paint0_linear)"/>
<path d="M6.11816 65.6035V73H4.9082V66.6494H2.95996L2.84375 69.1582C2.77995 70.5482 2.5931 71.5348 2.2832 72.1182C1.97331 72.6969 1.47656 72.9909 0.792969 73H0.389648V71.8857L0.697266 71.8584C1.03451 71.8128 1.27148 71.5872 1.4082 71.1816C1.54948 70.7715 1.6429 69.9671 1.68848 68.7686L1.80469 65.6035H6.11816ZM10.6846 73.1367C9.764 73.1367 9.05762 72.8633 8.56543 72.3164C8.07324 71.765 7.82259 70.9583 7.81348 69.8965V69.001C7.81348 67.8981 8.05273 67.0345 8.53125 66.4102C9.01432 65.7812 9.68652 65.4668 10.5479 65.4668C11.4137 65.4668 12.0609 65.7425 12.4893 66.2939C12.9176 66.8454 13.1364 67.7044 13.1455 68.8711V69.6641H9.0166V69.835C9.0166 70.6279 9.16471 71.2044 9.46094 71.5645C9.76172 71.9245 10.1924 72.1045 10.7529 72.1045C11.1084 72.1045 11.4206 72.0384 11.6895 71.9062C11.9629 71.7695 12.2181 71.5553 12.4551 71.2637L13.084 72.0293C12.5599 72.7676 11.7601 73.1367 10.6846 73.1367ZM10.5479 66.5059C10.0465 66.5059 9.67513 66.679 9.43359 67.0254C9.19206 67.3672 9.05534 67.9004 9.02344 68.625H11.9355V68.4609C11.9036 67.7591 11.776 67.2578 11.5527 66.957C11.334 66.6562 10.999 66.5059 10.5479 66.5059ZM19.1953 66.6289H17.1787V73H15.9756V66.6289H13.9863V65.6035H19.1953V66.6289Z" fill="#2E35AC"/>

</symbol><symbol id="border_round"><circle cx="50" cy="50" r="49" stroke="url(#paint0_linear)" stroke-width="2"/></symbol><symbol id="fb_icon"><path d="M11.548.005L8.67 0C5.436 0 3.347 2.318 3.347 5.906V8.63H.453c-.25 0-.453.219-.453.49v3.945c0 .27.203.49.453.49h2.894v9.956c0 .27.202.489.452.489h3.776c.25 0 .452-.22.452-.49v-9.956h3.384c.25 0 .453-.219.453-.489l.001-3.946a.51.51 0 00-.132-.346.436.436 0 00-.32-.143H8.026V6.32c0-1.11.245-1.673 1.582-1.673h1.939c.25 0 .452-.22.452-.49V.494c0-.27-.202-.489-.452-.489z"/></symbol><symbol id="fb_icon_mobile" viewBox="0 0 14 27">
<path d="M13.4728 0.0056178L10.1148 0C6.34228 0 3.90429 2.60806 3.90429 6.64474V9.7084H0.528007C0.236257 9.7084 0 9.95503 0 10.2592V14.6981C0 15.0023 0.236526 15.2487 0.528007 15.2487H3.90429V26.4495C3.90429 26.7537 4.14055 27 4.4323 27H8.83738C9.12914 27 9.36539 26.7534 9.36539 26.4495V15.2487H13.3131C13.6048 15.2487 13.8411 15.0023 13.8411 14.6981L13.8427 10.2592C13.8427 10.1132 13.7869 9.97328 13.688 9.86992C13.5892 9.76655 13.4545 9.7084 13.3144 9.7084H9.36539V7.11129C9.36539 5.86302 9.65068 5.22933 11.2102 5.22933L13.4723 5.22849C13.7637 5.22849 14 4.98187 14 4.67794V0.556162C14 0.25252 13.764 0.00617958 13.4728 0.0056178Z"/>
</symbol><symbol id="gradient_border_round"><circle cx="50" cy="50" r="49" stroke="url(#paint0_linear)" stroke-width="2"/></symbol><symbol id="gradient_border_round_tablet"><path stroke="url(#paint0_linear)" stroke-width="7" d="M3.5 3.5h435v441H3.5z"/></symbol><symbol id="insta_icon"><path d="M17.503 0H6.497A6.504 6.504 0 000 6.497v11.007A6.504 6.504 0 006.497 24h11.007A6.504 6.504 0 0024 17.504V6.497A6.504 6.504 0 0017.503 0zM12 18.562A6.57 6.57 0 015.438 12 6.57 6.57 0 0112 5.438 6.57 6.57 0 0118.562 12 6.57 6.57 0 0112 18.562zm6.72-11.577c-1.07 0-1.94-.87-1.94-1.939 0-1.07.87-1.94 1.94-1.94 1.069 0 1.939.87 1.939 1.94 0 1.07-.87 1.94-1.94 1.94z"/><path d="M12 6.844A5.161 5.161 0 006.845 12 5.161 5.161 0 0012 17.155 5.161 5.161 0 0017.155 12 5.161 5.161 0 0012 6.844zm6.719-2.33a.533.533 0 10.001 1.066.533.533 0 00-.001-1.066z"/></symbol><symbol id="insta_icon_mobile" viewBox="0 0 27 27">
<path d="M19.6913 0H7.30865C3.27859 0 0 3.27859 0 7.30865V19.6916C0 23.7214 3.27859 27 7.30865 27H19.6916C23.7214 27 27 23.7214 27 19.6916V7.30865C27 3.27859 23.7214 0 19.6913 0V0ZM13.5 20.8826C9.42915 20.8826 6.11739 17.5708 6.11739 13.5C6.11739 9.42915 9.42915 6.11739 13.5 6.11739C17.5708 6.11739 20.8826 9.42915 20.8826 13.5C20.8826 17.5708 17.5708 20.8826 13.5 20.8826ZM21.0591 7.85845C19.8561 7.85845 18.8777 6.87998 18.8777 5.67698C18.8777 4.47398 19.8561 3.4953 21.0591 3.4953C22.2621 3.4953 23.2408 4.47398 23.2408 5.67698C23.2408 6.87998 22.2621 7.85845 21.0591 7.85845Z"/>
<path d="M13.5002 7.70044C10.3023 7.70044 7.70044 10.3021 7.70044 13.5002C7.70044 16.698 10.3023 19.2999 13.5002 19.2999C16.6982 19.2999 19.2999 16.698 19.2999 13.5002C19.2999 10.3021 16.6982 7.70044 13.5002 7.70044Z"/>
<path d="M21.0583 5.07861C20.7283 5.07861 20.4597 5.34723 20.4597 5.67723C20.4597 6.00723 20.7283 6.27585 21.0583 6.27585C21.3885 6.27585 21.6572 6.00744 21.6572 5.67723C21.6572 5.34702 21.3885 5.07861 21.0583 5.07861Z"/>
</symbol><symbol id="logo"><path d="M.676 5.168c0-1.473.355-2.6 1.066-3.38C2.452.991 3.502.592 4.888.592c1.387 0 2.435.399 3.146 1.196.71.78 1.066 1.907 1.066 3.38v.572H6.396v-.754c0-1.196-.477-1.794-1.43-1.794s-1.43.598-1.43 1.794c0 .676.19 1.317.572 1.924.381.59.84 1.127 1.378 1.612.555.485 1.11.997 1.664 1.534.555.52 1.023 1.179 1.404 1.976.381.78.572 1.647.572 2.6 0 1.473-.364 2.609-1.092 3.406-.728.78-1.785 1.17-3.172 1.17-1.387 0-2.444-.39-3.172-1.17-.728-.797-1.092-1.933-1.092-3.406v-1.118h2.704v1.3c0 1.179.494 1.768 1.482 1.768s1.482-.59 1.482-1.768a3.43 3.43 0 00-.572-1.898 7.405 7.405 0 00-1.404-1.638c-.537-.485-1.083-.988-1.638-1.508-.555-.537-1.023-1.196-1.404-1.976C.867 6.997.676 6.121.676 5.168zM11.155.8h2.86v14.04c0 1.179.494 1.768 1.482 1.768s1.482-.59 1.482-1.768V.8h2.704v13.858c0 1.473-.364 2.609-1.092 3.406-.728.78-1.786 1.17-3.172 1.17-1.387 0-2.444-.39-3.172-1.17-.728-.797-1.092-1.933-1.092-3.406V.8zm15.221 0c2.843 0 4.264 1.5 4.264 4.498v2.366c0 2.999-1.421 4.498-4.264 4.498h-1.352V19h-2.86V.8h4.212zm0 2.6h-1.352v6.162h1.352c.468 0 .815-.13 1.04-.39.243-.26.364-.702.364-1.326v-2.73c0-.624-.121-1.066-.364-1.326-.225-.26-.572-.39-1.04-.39zm8.969 0v5.07h3.926v2.6h-3.926v5.33h4.94V19h-7.8V.8h7.8v2.6h-4.94zM51.469 19h-2.912c-.173-.52-.26-1.265-.26-2.236v-2.86c0-.832-.147-1.421-.442-1.768-.295-.364-.771-.546-1.43-.546h-.988V19h-2.86V.8h4.316c1.473 0 2.548.347 3.224 1.04.676.676 1.014 1.725 1.014 3.146v1.43c0 1.872-.624 3.103-1.872 3.692 1.265.537 1.898 1.829 1.898 3.874v2.808c0 .988.104 1.725.312 2.21zM46.815 3.4h-1.378v5.59h1.118c.572 0 .997-.147 1.274-.442.295-.295.442-.789.442-1.482V5.272c0-1.248-.485-1.872-1.456-1.872zm11.033 8.06v-2.6h4.004v5.772c0 1.473-.364 2.609-1.092 3.406-.728.78-1.785 1.17-3.172 1.17-1.387 0-2.444-.39-3.172-1.17-.728-.797-1.092-1.933-1.092-3.406V5.168c0-1.473.364-2.6 1.092-3.38.728-.797 1.785-1.196 3.172-1.196 1.387 0 2.444.399 3.172 1.196.728.78 1.092 1.907 1.092 3.38v1.768h-2.704v-1.95c0-1.196-.494-1.794-1.482-1.794s-1.482.598-1.482 1.794v9.828c0 1.179.494 1.768 1.482 1.768s1.482-.59 1.482-1.768V11.46h-1.3zM66.506 19v-6.032L62.892.8h2.99l2.184 8.294L70.25.8h2.73l-3.614 12.168V19h-2.86zM78.609.8l2.106 12.922L82.665.8h3.978V19h-2.704V5.948L81.963 19h-2.704L77.127 6.13V19H74.63V.8h3.978z"/></symbol><symbol id="logo_mobile"><path d="M.52 4.36c0-1.133.273-2 .82-2.6.547-.613 1.353-.92 2.42-.92s1.873.307 2.42.92c.547.6.82 1.467.82 2.6v.44H4.92v-.58c0-.92-.367-1.38-1.1-1.38-.733 0-1.1.46-1.1 1.38 0 .52.147 1.013.44 1.48.293.453.647.867 1.06 1.24.427.373.853.767 1.28 1.18.427.4.787.907 1.08 1.52.293.6.44 1.267.44 2 0 1.133-.28 2.007-.84 2.62-.56.6-1.373.9-2.44.9s-1.88-.3-2.44-.9c-.56-.613-.84-1.487-.84-2.62v-.86h2.08v1c0 .907.38 1.36 1.14 1.36.76 0 1.14-.453 1.14-1.36a2.64 2.64 0 00-.44-1.46A5.697 5.697 0 003.3 9.06c-.413-.373-.833-.76-1.26-1.16A5.381 5.381 0 01.96 6.38a4.62 4.62 0 01-.44-2.02zM8.58 1h2.2v10.8c0 .907.38 1.36 1.14 1.36.76 0 1.14-.453 1.14-1.36V1h2.08v10.66c0 1.133-.28 2.007-.84 2.62-.56.6-1.373.9-2.44.9-1.066 0-1.88-.3-2.44-.9-.56-.613-.84-1.487-.84-2.62V1zm11.71 0c2.186 0 3.28 1.153 3.28 3.46v1.82c0 2.307-1.094 3.46-3.28 3.46h-1.04V15h-2.2V1h3.24zm0 2h-1.04v4.74h1.04c.36 0 .626-.1.8-.3.186-.2.28-.54.28-1.02v-2.1c0-.48-.094-.82-.28-1.02-.174-.2-.44-.3-.8-.3zm6.898 0v3.9h3.02v2h-3.02V13h3.8v2h-6V1h6v2h-3.8zm12.404 12h-2.24c-.134-.4-.2-.973-.2-1.72v-2.2c0-.64-.114-1.093-.34-1.36-.227-.28-.594-.42-1.1-.42h-.76V15h-2.2V1h3.32c1.133 0 1.96.267 2.48.8.52.52.78 1.327.78 2.42v1.1c0 1.44-.48 2.387-1.44 2.84.973.413 1.46 1.407 1.46 2.98v2.16c0 .76.08 1.327.24 1.7zm-3.58-12h-1.06v4.3h.86c.44 0 .766-.113.98-.34.226-.227.34-.607.34-1.14V4.44c0-.96-.374-1.44-1.12-1.44zm8.486 6.2v-2h3.08v4.44c0 1.133-.28 2.007-.84 2.62-.56.6-1.373.9-2.44.9-1.066 0-1.88-.3-2.44-.9-.56-.613-.84-1.487-.84-2.62V4.36c0-1.133.28-2 .84-2.6.56-.613 1.374-.92 2.44-.92 1.067 0 1.88.307 2.44.92.56.6.84 1.467.84 2.6v1.36h-2.08v-1.5c0-.92-.38-1.38-1.14-1.38-.76 0-1.14.46-1.14 1.38v7.56c0 .907.38 1.36 1.14 1.36.76 0 1.14-.453 1.14-1.36V9.2h-1zm6.66 5.8v-4.64L48.378 1h2.3l1.68 6.38L54.038 1h2.1l-2.78 9.36V15h-2.2zm9.31-14l1.62 9.94 1.5-9.94h3.06v14h-2.08V4.96L63.048 15h-2.08l-1.64-9.9V15h-1.92V1h3.06z"/></symbol><symbol id="logo_tablet"><path d="M.624 4.232c0-1.36.328-2.4.984-3.12C2.264.376 3.232.008 4.512.008S6.76.376 7.416 1.112c.656.72.984 1.76.984 3.12v.528H5.904v-.696c0-1.104-.44-1.656-1.32-1.656s-1.32.552-1.32 1.656c0 .624.176 1.216.528 1.776.352.544.776 1.04 1.272 1.488.512.448 1.024.92 1.536 1.416.512.48.944 1.088 1.296 1.824.352.72.528 1.52.528 2.4 0 1.36-.336 2.408-1.008 3.144-.672.72-1.648 1.08-2.928 1.08s-2.256-.36-2.928-1.08C.888 15.376.552 14.328.552 12.968v-1.032h2.496v1.2c0 1.088.456 1.632 1.368 1.632s1.368-.544 1.368-1.632c0-.624-.176-1.208-.528-1.752A6.837 6.837 0 003.96 9.872c-.496-.448-1-.912-1.512-1.392a6.458 6.458 0 01-1.296-1.824 5.545 5.545 0 01-.528-2.424zM10.297.2h2.64v12.96c0 1.088.456 1.632 1.368 1.632s1.368-.544 1.368-1.632V.2h2.496v12.792c0 1.36-.336 2.408-1.008 3.144-.672.72-1.648 1.08-2.928 1.08s-2.256-.36-2.928-1.08c-.672-.736-1.008-1.784-1.008-3.144zm14.05 0c2.624 0 3.936 1.384 3.936 4.152v2.184c0 2.768-1.312 4.152-3.936 4.152H23.1V17h-2.64V.2zm0 2.4H23.1v5.688h1.248c.432 0 .752-.12.96-.36.224-.24.336-.648.336-1.224v-2.52c0-.576-.112-.984-.336-1.224-.208-.24-.528-.36-.96-.36zm8.279 0v4.68h3.624v2.4h-3.624v4.92h4.56V17h-7.2V.2h7.2v2.4zM47.51 17h-2.688c-.16-.48-.24-1.168-.24-2.064v-2.64c0-.768-.136-1.312-.408-1.632-.272-.336-.712-.504-1.32-.504h-.912V17h-2.64V.2h3.984c1.36 0 2.352.32 2.976.96.624.624.936 1.592.936 2.904v1.32c0 1.728-.576 2.864-1.728 3.408 1.168.496 1.752 1.688 1.752 3.576v2.592c0 .912.096 1.592.288 2.04zM43.214 2.6h-1.272v5.16h1.032c.528 0 .92-.136 1.176-.408.272-.272.408-.728.408-1.368V4.328c0-1.152-.448-1.728-1.344-1.728zm10.184 7.44v-2.4h3.696v5.328c0 1.36-.336 2.408-1.008 3.144-.672.72-1.648 1.08-2.928 1.08s-2.256-.36-2.928-1.08c-.672-.736-1.008-1.784-1.008-3.144V4.232c0-1.36.336-2.4 1.008-3.12.672-.736 1.648-1.104 2.928-1.104s2.256.368 2.928 1.104c.672.72 1.008 1.76 1.008 3.12v1.632h-2.496v-1.8c0-1.104-.456-1.656-1.368-1.656s-1.368.552-1.368 1.656v9.072c0 1.088.456 1.632 1.368 1.632s1.368-.544 1.368-1.632V10.04zM61.39 17v-5.568L58.054.2h2.76l2.016 7.656L64.846.2h2.52L64.03 11.432V17zM72.562.2l1.944 11.928L76.306.2h3.672V17h-2.496V4.952L75.658 17h-2.496L71.194 5.12V17H68.89V.2z"/></symbol><symbol id="ruble_icon"><path fill-rule="evenodd" clip-rule="evenodd" d="M18.5 6H10v11h8.5a5.5 5.5 0 100-11zM4 0v23h14.5C24.851 23 30 17.851 30 11.5S24.851 0 18.5 0H4z" fill="#102654"/><path fill-rule="evenodd" clip-rule="evenodd" d="M0 17h6v6H0v-6z" fill="#102654"/><path fill-rule="evenodd" clip-rule="evenodd" d="M3.659 28.321V18h6v10.321H21v6H9.659V42h-6v-7.679H0v-6h3.659z" fill="#102654"/></symbol><symbol id="vk_icon"><path fill-rule="evenodd" clip-rule="evenodd" d="M20.655 8.266c.796.744 1.637 1.444 2.35 2.263.316.364.615.74.843 1.162.324.6.03 1.26-.532 1.297l-3.496-.002c-.902.072-1.621-.276-2.226-.866-.484-.472-.933-.974-1.398-1.462a3.27 3.27 0 00-.63-.535c-.476-.297-.89-.206-1.164.27-.277.485-.34 1.022-.368 1.562-.037.788-.286.995-1.113 1.031-1.767.08-3.445-.176-5.003-1.03-1.374-.752-2.44-1.814-3.366-3.016C2.746 6.598 1.364 4.026.122 1.38-.159.786.045.466.732.455A97.704 97.704 0 014.156.452c.464.007.77.261.95.68.617 1.453 1.372 2.835 2.32 4.115.252.341.51.682.876.922.405.266.714.178.905-.254.12-.274.174-.57.201-.863.09-1.01.102-2.019-.056-3.025C9.255 1.399 8.885.992 8.23.873c-.334-.06-.284-.18-.123-.362C8.388.196 8.653 0 9.18 0h3.951c.622.118.76.385.845.984l.004 4.201c-.007.232.12.92.557 1.074.35.11.58-.158.79-.37.946-.961 1.62-2.097 2.224-3.273.268-.517.498-1.054.721-1.591.165-.398.425-.594.893-.586l3.803.004c.113 0 .227.001.336.02.641.104.817.368.619.967-.312.94-.919 1.722-1.512 2.51-.634.84-1.313 1.65-1.941 2.495-.578.772-.532 1.16.185 1.831z"/></symbol><symbol id="vk_icon_mobile" viewBox="0 0 32 17">
<path fill-rule="evenodd" clip-rule="evenodd" d="M27.5406 10.8094C28.602 11.7823 29.7224 12.6976 30.6744 13.7686C31.095 14.2445 31.4931 14.7356 31.7977 15.288C32.2293 16.0731 31.8384 16.9371 31.0885 16.984L26.4266 16.982C25.2243 17.0757 24.2651 16.6213 23.4586 15.8496C22.8131 15.2324 22.2154 14.5756 21.5948 13.9376C21.3403 13.6768 21.074 13.4314 20.7559 13.2375C20.1195 12.8497 19.5671 12.9684 19.2034 13.5915C18.833 14.2253 18.749 14.927 18.7126 15.6333C18.6627 16.6638 18.3308 16.9348 17.2281 16.9819C14.8716 17.0863 12.6351 16.7516 10.5574 15.6356C8.72568 14.6517 7.30526 13.2628 6.06893 11.6905C3.66178 8.62871 1.81839 5.26434 0.161611 1.80571C-0.211316 1.02647 0.0614137 0.608187 0.977277 0.593382C2.49811 0.565647 4.01873 0.567621 5.54135 0.591408C6.15946 0.599896 6.56866 0.93271 6.80732 1.48089C7.63014 3.38016 8.63694 5.18715 9.90071 6.86208C10.2373 7.30801 10.5804 7.75393 11.0691 8.0678C11.6097 8.41532 12.0214 8.30014 12.2757 7.73479C12.4371 7.37631 12.5077 6.9902 12.5441 6.60625C12.6646 5.28536 12.6805 3.96673 12.4691 2.65048C12.3394 1.829 11.8465 1.29721 10.9733 1.14176C10.5278 1.0625 10.5941 0.906852 10.8098 0.668097C11.1846 0.256323 11.537 0 12.2395 0H17.5081C18.3376 0.153675 18.5218 0.503466 18.6353 1.28694L18.6398 6.78085C18.6308 7.08416 18.8012 7.9842 19.3832 8.18495C19.8489 8.32787 20.1559 7.97808 20.4354 7.70083C21.6968 6.44399 22.5972 4.95866 23.4015 3.42063C23.7584 2.74434 24.0653 2.04199 24.3627 1.34024C24.5831 0.819502 24.9289 0.563278 25.5538 0.574628L30.6245 0.578872C30.7748 0.578872 30.927 0.580945 31.0726 0.604337C31.9271 0.741036 32.1612 1.08609 31.8973 1.86937C31.4815 3.09828 30.6724 4.12238 29.8814 5.15123C29.0357 6.24965 28.1313 7.31048 27.2928 8.41542C26.5223 9.42442 26.5835 9.93302 27.5406 10.8094Z"/>
</symbol></svg>