<svg width="24" height="24" fill="none" xmlns="http://www.w3.org/2000/svg"><path d="M17.503 0H6.497A6.504 6.504 0 000 6.497v11.007A6.504 6.504 0 006.497 24h11.007A6.504 6.504 0 0024 17.504V6.497A6.504 6.504 0 0017.503 0zM12 18.562A6.57 6.57 0 015.438 12 6.57 6.57 0 0112 5.438 6.57 6.57 0 0118.562 12 6.57 6.57 0 0112 18.562zm6.72-11.577c-1.07 0-1.94-.87-1.94-1.939 0-1.07.87-1.94 1.94-1.94 1.069 0 1.939.87 1.939 1.94 0 1.07-.87 1.94-1.94 1.94z" fill="#fff"/><path d="M12 6.844A5.161 5.161 0 006.845 12 5.161 5.161 0 0012 17.155 5.161 5.161 0 0017.155 12 5.161 5.161 0 0012 6.844zm6.719-2.33a.533.533 0 10.001 1.066.533.533 0 00-.001-1.066z" fill="#fff"/></svg>