<svg xmlns="http://www.w3.org/2000/svg" xmlns:xlink="http://www.w3.org/1999/xlink"><symbol id="fb_icon"><path d="M11.548.005L8.67 0C5.436 0 3.347 2.318 3.347 5.906V8.63H.453c-.25 0-.453.219-.453.49v3.945c0 .27.203.49.453.49h2.894v9.956c0 .27.202.489.452.489h3.776c.25 0 .452-.22.452-.49v-9.956h3.384c.25 0 .453-.219.453-.489l.001-3.946a.51.51 0 00-.132-.346.436.436 0 00-.32-.143H8.026V6.32c0-1.11.245-1.673 1.582-1.673h1.939c.25 0 .452-.22.452-.49V.494c0-.27-.202-.489-.452-.489z" fill="#fff"/></symbol><symbol id="insta_icon"><path d="M17.503 0H6.497A6.504 6.504 0 000 6.497v11.007A6.504 6.504 0 006.497 24h11.007A6.504 6.504 0 0024 17.504V6.497A6.504 6.504 0 0017.503 0zM12 18.562A6.57 6.57 0 015.438 12 6.57 6.57 0 0112 5.438 6.57 6.57 0 0118.562 12 6.57 6.57 0 0112 18.562zm6.72-11.577c-1.07 0-1.94-.87-1.94-1.939 0-1.07.87-1.94 1.94-1.94 1.069 0 1.939.87 1.939 1.94 0 1.07-.87 1.94-1.94 1.94z" fill="#fff"/><path d="M12 6.844A5.161 5.161 0 006.845 12 5.161 5.161 0 0012 17.155 5.161 5.161 0 0017.155 12 5.161 5.161 0 0012 6.844zm6.719-2.33a.533.533 0 10.001 1.066.533.533 0 00-.001-1.066z" fill="#fff"/></symbol><symbol id="logo"><path d="M.676 5.168c0-1.473.355-2.6 1.066-3.38C2.452.991 3.502.592 4.888.592c1.387 0 2.435.399 3.146 1.196.71.78 1.066 1.907 1.066 3.38v.572H6.396v-.754c0-1.196-.477-1.794-1.43-1.794s-1.43.598-1.43 1.794c0 .676.19 1.317.572 1.924.381.59.84 1.127 1.378 1.612.555.485 1.11.997 1.664 1.534.555.52 1.023 1.179 1.404 1.976.381.78.572 1.647.572 2.6 0 1.473-.364 2.609-1.092 3.406-.728.78-1.785 1.17-3.172 1.17-1.387 0-2.444-.39-3.172-1.17-.728-.797-1.092-1.933-1.092-3.406v-1.118h2.704v1.3c0 1.179.494 1.768 1.482 1.768s1.482-.59 1.482-1.768a3.43 3.43 0 00-.572-1.898 7.405 7.405 0 00-1.404-1.638c-.537-.485-1.083-.988-1.638-1.508-.555-.537-1.023-1.196-1.404-1.976C.867 6.997.676 6.121.676 5.168zM11.155.8h2.86v14.04c0 1.179.494 1.768 1.482 1.768s1.482-.59 1.482-1.768V.8h2.704v13.858c0 1.473-.364 2.609-1.092 3.406-.728.78-1.786 1.17-3.172 1.17-1.387 0-2.444-.39-3.172-1.17-.728-.797-1.092-1.933-1.092-3.406V.8zm15.221 0c2.843 0 4.264 1.5 4.264 4.498v2.366c0 2.999-1.421 4.498-4.264 4.498h-1.352V19h-2.86V.8h4.212zm0 2.6h-1.352v6.162h1.352c.468 0 .815-.13 1.04-.39.243-.26.364-.702.364-1.326v-2.73c0-.624-.121-1.066-.364-1.326-.225-.26-.572-.39-1.04-.39zm8.969 0v5.07h3.926v2.6h-3.926v5.33h4.94V19h-7.8V.8h7.8v2.6h-4.94zM51.469 19h-2.912c-.173-.52-.26-1.265-.26-2.236v-2.86c0-.832-.147-1.421-.442-1.768-.295-.364-.771-.546-1.43-.546h-.988V19h-2.86V.8h4.316c1.473 0 2.548.347 3.224 1.04.676.676 1.014 1.725 1.014 3.146v1.43c0 1.872-.624 3.103-1.872 3.692 1.265.537 1.898 1.829 1.898 3.874v2.808c0 .988.104 1.725.312 2.21zM46.815 3.4h-1.378v5.59h1.118c.572 0 .997-.147 1.274-.442.295-.295.442-.789.442-1.482V5.272c0-1.248-.485-1.872-1.456-1.872zm11.033 8.06v-2.6h4.004v5.772c0 1.473-.364 2.609-1.092 3.406-.728.78-1.785 1.17-3.172 1.17-1.387 0-2.444-.39-3.172-1.17-.728-.797-1.092-1.933-1.092-3.406V5.168c0-1.473.364-2.6 1.092-3.38.728-.797 1.785-1.196 3.172-1.196 1.387 0 2.444.399 3.172 1.196.728.78 1.092 1.907 1.092 3.38v1.768h-2.704v-1.95c0-1.196-.494-1.794-1.482-1.794s-1.482.598-1.482 1.794v9.828c0 1.179.494 1.768 1.482 1.768s1.482-.59 1.482-1.768V11.46h-1.3zM66.506 19v-6.032L62.892.8h2.99l2.184 8.294L70.25.8h2.73l-3.614 12.168V19h-2.86zM78.609.8l2.106 12.922L82.665.8h3.978V19h-2.704V5.948L81.963 19h-2.704L77.127 6.13V19H74.63V.8h3.978z"/></symbol><symbol id="vk_icon"><path fill-rule="evenodd" clip-rule="evenodd" d="M20.655 8.266c.796.744 1.637 1.444 2.35 2.263.316.364.615.74.843 1.162.324.6.03 1.26-.532 1.297l-3.496-.002c-.902.072-1.621-.276-2.226-.866-.484-.472-.933-.974-1.398-1.462a3.27 3.27 0 00-.63-.535c-.476-.297-.89-.206-1.164.27-.277.485-.34 1.022-.368 1.562-.037.788-.286.995-1.113 1.031-1.767.08-3.445-.176-5.003-1.03-1.374-.752-2.44-1.814-3.366-3.016C2.746 6.598 1.364 4.026.122 1.38-.159.786.045.466.732.455A97.704 97.704 0 014.156.452c.464.007.77.261.95.68.617 1.453 1.372 2.835 2.32 4.115.252.341.51.682.876.922.405.266.714.178.905-.254.12-.274.174-.57.201-.863.09-1.01.102-2.019-.056-3.025C9.255 1.399 8.885.992 8.23.873c-.334-.06-.284-.18-.123-.362C8.388.196 8.653 0 9.18 0h3.951c.622.118.76.385.845.984l.004 4.201c-.007.232.12.92.557 1.074.35.11.58-.158.79-.37.946-.961 1.62-2.097 2.224-3.273.268-.517.498-1.054.721-1.591.165-.398.425-.594.893-.586l3.803.004c.113 0 .227.001.336.02.641.104.817.368.619.967-.312.94-.919 1.722-1.512 2.51-.634.84-1.313 1.65-1.941 2.495-.578.772-.532 1.16.185 1.831z" fill="#fff"/></symbol></svg>